<svg id="visual" viewBox="0 0 960 540" width="960" height="540" xmlns="http://www.w3.org/2000/svg" xmlns:xlink="http://www.w3.org/1999/xlink" version="1.1"><path d="M0 161L22.8 154.2C45.7 147.3 91.3 133.7 137 126.7C182.7 119.7 228.3 119.3 274 124C319.7 128.7 365.3 138.3 411.2 149.3C457 160.3 503 172.7 548.8 163.7C594.7 154.7 640.3 124.3 686 120.2C731.7 116 777.3 138 823 138.3C868.7 138.7 914.3 117.3 937.2 106.7L960 96L960 0L937.2 0C914.3 0 868.7 0 823 0C777.3 0 731.7 0 686 0C640.3 0 594.7 0 548.8 0C503 0 457 0 411.2 0C365.3 0 319.7 0 274 0C228.3 0 182.7 0 137 0C91.3 0 45.7 0 22.8 0L0 0Z" fill="#fFF" stroke-linecap="round" stroke-linejoin="miter"></path></svg>