<svg id="visual" viewBox="0 0 900 600" width="900" height="600" xmlns="http://www.w3.org/2000/svg" xmlns:xlink="http://www.w3.org/1999/xlink" version="1.1"><rect x="0" y="0" width="900" height="600" fill="#735AC2"></rect><defs><linearGradient id="grad1_0" x1="33.3%" y1="0%" x2="100%" y2="100%"><stop offset="20%" stop-color="#f7f441" stop-opacity="1"></stop><stop offset="80%" stop-color="#f7f441" stop-opacity="1"></stop></linearGradient></defs><defs><linearGradient id="grad1_1" x1="33.3%" y1="0%" x2="100%" y2="100%"><stop offset="20%" stop-color="#f7f441" stop-opacity="1"></stop><stop offset="80%" stop-color="#ffbd3d" stop-opacity="1"></stop></linearGradient></defs><defs><linearGradient id="grad1_2" x1="33.3%" y1="0%" x2="100%" y2="100%"><stop offset="20%" stop-color="#ff8664" stop-opacity="1"></stop><stop offset="80%" stop-color="#ffbd3d" stop-opacity="1"></stop></linearGradient></defs><defs><linearGradient id="grad1_3" x1="33.3%" y1="0%" x2="100%" y2="100%"><stop offset="20%" stop-color="#ff8664" stop-opacity="1"></stop><stop offset="80%" stop-color="#ff5d90" stop-opacity="1"></stop></linearGradient></defs><defs><linearGradient id="grad1_4" x1="33.3%" y1="0%" x2="100%" y2="100%"><stop offset="20%" stop-color="#d153b4" stop-opacity="1"></stop><stop offset="80%" stop-color="#ff5d90" stop-opacity="1"></stop></linearGradient></defs><defs><linearGradient id="grad1_5" x1="33.3%" y1="0%" x2="100%" y2="100%"><stop offset="20%" stop-color="#d153b4" stop-opacity="1"></stop><stop offset="80%" stop-color="#735ac2" stop-opacity="1"></stop></linearGradient></defs><defs><linearGradient id="grad2_0" x1="0%" y1="0%" x2="66.7%" y2="100%"><stop offset="20%" stop-color="#f7f441" stop-opacity="1"></stop><stop offset="80%" stop-color="#f7f441" stop-opacity="1"></stop></linearGradient></defs><defs><linearGradient id="grad2_1" x1="0%" y1="0%" x2="66.7%" y2="100%"><stop offset="20%" stop-color="#ffbd3d" stop-opacity="1"></stop><stop offset="80%" stop-color="#f7f441" stop-opacity="1"></stop></linearGradient></defs><defs><linearGradient id="grad2_2" x1="0%" y1="0%" x2="66.7%" y2="100%"><stop offset="20%" stop-color="#ffbd3d" stop-opacity="1"></stop><stop offset="80%" stop-color="#ff8664" stop-opacity="1"></stop></linearGradient></defs><defs><linearGradient id="grad2_3" x1="0%" y1="0%" x2="66.7%" y2="100%"><stop offset="20%" stop-color="#ff5d90" stop-opacity="1"></stop><stop offset="80%" stop-color="#ff8664" stop-opacity="1"></stop></linearGradient></defs><defs><linearGradient id="grad2_4" x1="0%" y1="0%" x2="66.7%" y2="100%"><stop offset="20%" stop-color="#ff5d90" stop-opacity="1"></stop><stop offset="80%" stop-color="#d153b4" stop-opacity="1"></stop></linearGradient></defs><defs><linearGradient id="grad2_5" x1="0%" y1="0%" x2="66.7%" y2="100%"><stop offset="20%" stop-color="#735ac2" stop-opacity="1"></stop><stop offset="80%" stop-color="#d153b4" stop-opacity="1"></stop></linearGradient></defs><g transform="translate(900, 0)"><path d="M0 486.7C-37.1 485.8 -74.1 484.8 -107 468.9C-139.9 453.1 -168.7 422.4 -189.6 393.7C-210.6 365 -223.7 338.4 -263.1 329.9C-302.5 321.5 -368 331.2 -380.6 303.5C-393.1 275.8 -352.6 210.6 -360.4 173.6C-368.2 136.5 -424.2 127.7 -453.3 103.5C-482.4 79.2 -484.6 39.6 -486.7 0L0 0Z" fill="#a657be"></path><path d="M0 405.6C-30.9 404.8 -61.8 404 -89.2 390.8C-116.6 377.6 -140.5 352 -158 328.1C-175.5 304.2 -186.5 282 -219.3 274.9C-252.1 267.9 -306.7 276 -317.1 252.9C-327.6 229.8 -293.8 175.5 -300.3 144.6C-306.8 113.8 -353.5 106.4 -377.8 86.2C-402 66 -403.8 33 -405.6 0L0 0Z" fill="#f354a4"></path><path d="M0 324.5C-24.7 323.8 -49.4 323.2 -71.4 312.6C-93.3 302.1 -112.4 281.6 -126.4 262.5C-140.4 243.4 -149.2 225.6 -175.4 220C-201.7 214.3 -245.4 220.8 -253.7 202.3C-262.1 183.8 -235.1 140.4 -240.3 115.7C-245.4 91 -282.8 85.1 -302.2 69C-321.6 52.8 -323.1 26.4 -324.5 0L0 0Z" fill="#ff6e7a"></path><path d="M0 243.4C-18.5 242.9 -37.1 242.4 -53.5 234.5C-70 226.5 -84.3 211.2 -94.8 196.9C-105.3 182.5 -111.9 169.2 -131.6 165C-151.2 160.7 -184 165.6 -190.3 151.7C-196.5 137.9 -176.3 105.3 -180.2 86.8C-184.1 68.3 -212.1 63.9 -226.7 51.7C-241.2 39.6 -242.3 19.8 -243.4 0L0 0Z" fill="#ffa14f"></path><path d="M0 162.2C-12.4 161.9 -24.7 161.6 -35.7 156.3C-46.6 151 -56.2 140.8 -63.2 131.2C-70.2 121.7 -74.6 112.8 -87.7 110C-100.8 107.2 -122.7 110.4 -126.9 101.2C-131 91.9 -117.5 70.2 -120.1 57.9C-122.7 45.5 -141.4 42.6 -151.1 34.5C-160.8 26.4 -161.5 13.2 -162.2 0L0 0Z" fill="#ffd935"></path><path d="M0 81.1C-6.2 81 -12.4 80.8 -17.8 78.2C-23.3 75.5 -28.1 70.4 -31.6 65.6C-35.1 60.8 -37.3 56.4 -43.9 55C-50.4 53.6 -61.3 55.2 -63.4 50.6C-65.5 46 -58.8 35.1 -60.1 28.9C-61.4 22.8 -70.7 21.3 -75.6 17.2C-80.4 13.2 -80.8 6.6 -81.1 0L0 0Z" fill="#f7f441"></path></g><g transform="translate(0, 600)"><path d="M0 -486.7C22.6 -430.6 45.3 -374.4 86.6 -379.2C127.8 -384.1 187.8 -450.1 211.2 -438.5C234.6 -427 221.5 -338.1 242.5 -304.1C263.6 -270.2 318.8 -291.2 355.7 -283.7C392.6 -276.2 411.2 -240.1 428.9 -206.5C446.5 -173 463.3 -141.9 472.8 -107.9C482.3 -73.9 484.5 -37 486.7 0L0 0Z" fill="#a657be"></path><path d="M0 -405.6C18.9 -358.8 37.7 -312 72.1 -316C106.5 -320.1 156.5 -375 176 -365.5C195.5 -355.9 184.6 -281.7 202.1 -253.4C219.7 -225.1 265.7 -242.7 296.4 -236.4C327.2 -230.1 342.7 -200.1 357.4 -172.1C372.1 -144.1 386.1 -118.3 394 -89.9C402 -61.6 403.8 -30.8 405.6 0L0 0Z" fill="#f354a4"></path><path d="M0 -324.5C15.1 -287 30.2 -249.6 57.7 -252.8C85.2 -256.1 125.2 -300 140.8 -292.4C156.4 -284.7 147.7 -225.4 161.7 -202.8C175.7 -180.1 212.6 -194.1 237.2 -189.1C261.8 -184.1 274.1 -160.1 285.9 -137.7C297.7 -115.3 308.9 -94.6 315.2 -71.9C321.6 -49.3 323 -24.6 324.5 0L0 0Z" fill="#ff6e7a"></path><path d="M0 -243.4C11.3 -215.3 22.6 -187.2 43.3 -189.6C63.9 -192.1 93.9 -225 105.6 -219.3C117.3 -213.5 110.7 -169 121.3 -152.1C131.8 -135.1 159.4 -145.6 177.9 -141.8C196.3 -138.1 205.6 -120 214.4 -103.3C223.3 -86.5 231.7 -71 236.4 -54C241.2 -37 242.3 -18.5 243.4 0L0 0Z" fill="#ffa14f"></path><path d="M0 -162.2C7.5 -143.5 15.1 -124.8 28.9 -126.4C42.6 -128 62.6 -150 70.4 -146.2C78.2 -142.3 73.8 -112.7 80.8 -101.4C87.9 -90.1 106.3 -97.1 118.6 -94.6C130.9 -92.1 137.1 -80 143 -68.8C148.8 -57.7 154.4 -47.3 157.6 -36C160.8 -24.6 161.5 -12.3 162.2 0L0 0Z" fill="#ffd935"></path><path d="M0 -81.1C3.8 -71.8 7.5 -62.4 14.4 -63.2C21.3 -64 31.3 -75 35.2 -73.1C39.1 -71.2 36.9 -56.3 40.4 -50.7C43.9 -45 53.1 -48.5 59.3 -47.3C65.4 -46 68.5 -40 71.5 -34.4C74.4 -28.8 77.2 -23.7 78.8 -18C80.4 -12.3 80.8 -6.2 81.1 0L0 0Z" fill="#f7f441"></path></g></svg>