<svg id="visual" viewBox="0 0 1600 1200" width="1600" height="1200" xmlns="http://www.w3.org/2000/svg" xmlns:xlink="http://www.w3.org/1999/xlink" version="1.1"><path d="M0 715L19 688.8C38 662.7 76 610.3 114.2 554.2C152.3 498 190.7 438 228.8 442.7C267 447.3 305 516.7 343 558.2C381 599.7 419 613.3 457 650.8C495 688.3 533 749.7 571.2 729.2C609.3 708.7 647.7 606.3 685.8 607.7C724 609 762 714 800 761.3C838 808.7 876 798.3 914.2 767.7C952.3 737 990.7 686 1028.8 623.2C1067 560.3 1105 485.7 1143 436C1181 386.3 1219 361.7 1257 393.7C1295 425.7 1333 514.3 1371.2 541.2C1409.3 568 1447.7 533 1485.8 492.5C1524 452 1562 406 1581 383L1600 360" fill="none" stroke-linecap="round" stroke-linejoin="miter" stroke="#735AC2" stroke-width="80"></path></svg>