<svg id="visual" viewBox="0 0 1600 900" width="1600" height="900" xmlns="http://www.w3.org/2000/svg" xmlns:xlink="http://www.w3.org/1999/xlink" version="1.1"><path d="M0 734L38.2 739.8C76.3 745.7 152.7 757.3 228.8 741.8C305 726.3 381 683.7 457.2 650.2C533.3 616.7 609.7 592.3 685.8 589C762 585.7 838 603.3 914.2 619.7C990.3 636 1066.7 651 1142.8 658C1219 665 1295 664 1371.2 650.8C1447.3 637.7 1523.7 612.3 1561.8 599.7L1600 587L1600 901L1561.8 901C1523.7 901 1447.3 901 1371.2 901C1295 901 1219 901 1142.8 901C1066.7 901 990.3 901 914.2 901C838 901 762 901 685.8 901C609.7 901 533.3 901 457.2 901C381 901 305 901 228.8 901C152.7 901 76.3 901 38.2 901L0 901Z" fill="#fff" stroke-linecap="round" stroke-linejoin="miter"></path></svg>