<svg id="visual" viewBox="0 0 960 540" width="960" height="540" xmlns="http://www.w3.org/2000/svg" xmlns:xlink="http://www.w3.org/1999/xlink" version="1.1"><rect x="0" y="0" width="960" height="540" fill="#735AC2"></rect><defs><linearGradient id="grad1_0" x1="43.8%" y1="0%" x2="100%" y2="100%"><stop offset="14.444444444444446%" stop-color="#f7f441" stop-opacity="1"></stop><stop offset="85.55555555555554%" stop-color="#f7f441" stop-opacity="1"></stop></linearGradient></defs><defs><linearGradient id="grad1_1" x1="43.8%" y1="0%" x2="100%" y2="100%"><stop offset="14.444444444444446%" stop-color="#f7f441" stop-opacity="1"></stop><stop offset="85.55555555555554%" stop-color="#ffbd3d" stop-opacity="1"></stop></linearGradient></defs><defs><linearGradient id="grad1_2" x1="43.8%" y1="0%" x2="100%" y2="100%"><stop offset="14.444444444444446%" stop-color="#ff8664" stop-opacity="1"></stop><stop offset="85.55555555555554%" stop-color="#ffbd3d" stop-opacity="1"></stop></linearGradient></defs><defs><linearGradient id="grad1_3" x1="43.8%" y1="0%" x2="100%" y2="100%"><stop offset="14.444444444444446%" stop-color="#ff8664" stop-opacity="1"></stop><stop offset="85.55555555555554%" stop-color="#ff5d90" stop-opacity="1"></stop></linearGradient></defs><defs><linearGradient id="grad1_4" x1="43.8%" y1="0%" x2="100%" y2="100%"><stop offset="14.444444444444446%" stop-color="#d153b4" stop-opacity="1"></stop><stop offset="85.55555555555554%" stop-color="#ff5d90" stop-opacity="1"></stop></linearGradient></defs><defs><linearGradient id="grad1_5" x1="43.8%" y1="0%" x2="100%" y2="100%"><stop offset="14.444444444444446%" stop-color="#d153b4" stop-opacity="1"></stop><stop offset="85.55555555555554%" stop-color="#735ac2" stop-opacity="1"></stop></linearGradient></defs><defs><linearGradient id="grad2_0" x1="0%" y1="0%" x2="56.3%" y2="100%"><stop offset="14.444444444444446%" stop-color="#f7f441" stop-opacity="1"></stop><stop offset="85.55555555555554%" stop-color="#f7f441" stop-opacity="1"></stop></linearGradient></defs><defs><linearGradient id="grad2_1" x1="0%" y1="0%" x2="56.3%" y2="100%"><stop offset="14.444444444444446%" stop-color="#ffbd3d" stop-opacity="1"></stop><stop offset="85.55555555555554%" stop-color="#f7f441" stop-opacity="1"></stop></linearGradient></defs><defs><linearGradient id="grad2_2" x1="0%" y1="0%" x2="56.3%" y2="100%"><stop offset="14.444444444444446%" stop-color="#ffbd3d" stop-opacity="1"></stop><stop offset="85.55555555555554%" stop-color="#ff8664" stop-opacity="1"></stop></linearGradient></defs><defs><linearGradient id="grad2_3" x1="0%" y1="0%" x2="56.3%" y2="100%"><stop offset="14.444444444444446%" stop-color="#ff5d90" stop-opacity="1"></stop><stop offset="85.55555555555554%" stop-color="#ff8664" stop-opacity="1"></stop></linearGradient></defs><defs><linearGradient id="grad2_4" x1="0%" y1="0%" x2="56.3%" y2="100%"><stop offset="14.444444444444446%" stop-color="#ff5d90" stop-opacity="1"></stop><stop offset="85.55555555555554%" stop-color="#d153b4" stop-opacity="1"></stop></linearGradient></defs><defs><linearGradient id="grad2_5" x1="0%" y1="0%" x2="56.3%" y2="100%"><stop offset="14.444444444444446%" stop-color="#735ac2" stop-opacity="1"></stop><stop offset="85.55555555555554%" stop-color="#d153b4" stop-opacity="1"></stop></linearGradient></defs><g transform="translate(960, 0)"><path d="M0 486C-34.9 471.3 -69.8 456.5 -101 442.6C-132.3 428.7 -160 415.7 -197.4 409.9C-234.9 404.2 -282.1 405.7 -303 380C-323.9 354.2 -318.4 301.1 -337 268.7C-355.5 236.3 -398.2 224.7 -411.7 198.3C-425.3 171.9 -409.7 130.7 -417.3 95.2C-424.8 59.7 -455.4 29.9 -486 0L0 0Z" fill="#a657be"></path><path d="M0 405C-29.1 392.7 -58.1 380.4 -84.2 368.8C-110.2 357.3 -133.3 346.4 -164.5 341.6C-195.7 336.8 -235.1 338.1 -252.5 316.6C-269.9 295.2 -265.3 250.9 -280.8 223.9C-296.3 197 -331.8 187.2 -343.1 165.2C-354.4 143.2 -341.5 109 -347.7 79.4C-354 49.8 -379.5 24.9 -405 0L0 0Z" fill="#f354a4"></path><path d="M0 324C-23.3 314.2 -46.5 304.3 -67.3 295.1C-88.2 285.8 -106.6 277.1 -131.6 273.3C-156.6 269.5 -188.1 270.5 -202 253.3C-215.9 236.1 -212.3 200.7 -224.6 179.1C-237 157.6 -265.5 149.8 -274.5 132.2C-283.5 114.6 -273.2 87.2 -278.2 63.5C-283.2 39.8 -303.6 19.9 -324 0L0 0Z" fill="#ff6e7a"></path><path d="M0 243C-17.4 235.6 -34.9 228.3 -50.5 221.3C-66.1 214.4 -80 207.8 -98.7 205C-117.4 202.1 -141.1 202.9 -151.5 190C-161.9 177.1 -159.2 150.6 -168.5 134.4C-177.8 118.2 -199.1 112.3 -205.9 99.1C-212.6 85.9 -204.9 65.4 -208.6 47.6C-212.4 29.9 -227.7 14.9 -243 0L0 0Z" fill="#ffa14f"></path><path d="M0 162C-11.6 157.1 -23.3 152.2 -33.7 147.5C-44.1 142.9 -53.3 138.6 -65.8 136.6C-78.3 134.7 -94 135.2 -101 126.7C-108 118.1 -106.1 100.4 -112.3 89.6C-118.5 78.8 -132.7 74.9 -137.2 66.1C-141.8 57.3 -136.6 43.6 -139.1 31.7C-141.6 19.9 -151.8 10 -162 0L0 0Z" fill="#ffd935"></path><path d="M0 81C-5.8 78.5 -11.6 76.1 -16.8 73.8C-22 71.5 -26.7 69.3 -32.9 68.3C-39.1 67.4 -47 67.6 -50.5 63.3C-54 59 -53.1 50.2 -56.2 44.8C-59.3 39.4 -66.4 37.4 -68.6 33C-70.9 28.6 -68.3 21.8 -69.5 15.9C-70.8 10 -75.9 5 -81 0L0 0Z" fill="#f7f441"></path></g><g transform="translate(0, 540)"><path d="M0 -486C37.4 -486.9 74.8 -487.9 108.1 -473.8C141.4 -459.7 170.6 -430.6 191.8 -398.2C212.9 -365.8 226 -330.2 241.9 -303.4C257.8 -276.5 276.5 -258.5 304.1 -242.5C331.8 -226.5 368.4 -212.5 393.7 -189.6C419 -166.7 433 -135 446.5 -101.9C460 -68.8 473 -34.4 486 0L0 0Z" fill="#a657be"></path><path d="M0 -405C31.2 -405.8 62.4 -406.6 90.1 -394.8C117.9 -383.1 142.2 -358.8 159.8 -331.9C177.4 -304.9 188.4 -275.1 201.6 -252.8C214.8 -230.4 230.4 -215.5 253.4 -202.1C276.5 -188.8 307 -177.1 328.1 -158C349.2 -138.9 360.9 -112.5 372.1 -84.9C383.3 -57.4 394.2 -28.7 405 0L0 0Z" fill="#f354a4"></path><path d="M0 -324C24.9 -324.6 49.9 -325.3 72.1 -315.9C94.3 -306.5 113.8 -287.1 127.9 -265.5C141.9 -243.9 150.7 -220.1 161.3 -202.2C171.9 -184.4 184.3 -172.4 202.8 -161.7C221.2 -151 245.6 -141.7 262.5 -126.4C279.4 -111.1 288.7 -90 297.7 -67.9C306.7 -45.9 315.3 -22.9 324 0L0 0Z" fill="#ff6e7a"></path><path d="M0 -243C18.7 -243.5 37.4 -243.9 54.1 -236.9C70.7 -229.9 85.3 -215.3 95.9 -199.1C106.5 -182.9 113 -165.1 121 -151.7C128.9 -138.3 138.2 -129.3 152.1 -121.3C165.9 -113.3 184.2 -106.2 196.9 -94.8C209.5 -83.4 216.5 -67.5 223.3 -51C230 -34.4 236.5 -17.2 243 0L0 0Z" fill="#ffa14f"></path><path d="M0 -162C12.5 -162.3 24.9 -162.6 36 -157.9C47.1 -153.2 56.9 -143.5 63.9 -132.7C71 -121.9 75.3 -110.1 80.6 -101.1C85.9 -92.2 92.2 -86.2 101.4 -80.8C110.6 -75.5 122.8 -70.8 131.2 -63.2C139.7 -55.6 144.3 -45 148.8 -34C153.3 -22.9 157.7 -11.5 162 0L0 0Z" fill="#ffd935"></path><path d="M0 -81C6.2 -81.2 12.5 -81.3 18 -79C23.6 -76.6 28.4 -71.8 32 -66.4C35.5 -61 37.7 -55 40.3 -50.6C43 -46.1 46.1 -43.1 50.7 -40.4C55.3 -37.8 61.4 -35.4 65.6 -31.6C69.8 -27.8 72.2 -22.5 74.4 -17C76.7 -11.5 78.8 -5.7 81 0L0 0Z" fill="#f7f441"></path></g></svg>